<svg width="192" height="192" xmlns="http://www.w3.org/2000/svg" xmlns:xlink="http://www.w3.org/1999/xlink" overflow="hidden"><g><rect x="0" y="0" width="192" height="192" fill="#FFFFFF"/><path d="M31.166 59.768C27.5622 60.59 24.009 61.6198 20.524 62.852 9.724 66.73 4.564 70.804 4.058 82.652L4 84.636 4 84.636 4 84.636 4 125.756C3.95154 127.769 5.3471 129.53 7.318 129.942 9.4948 130.319 11.5648 128.859 11.9414 126.683 11.9804 126.457 12 126.229 12 126L12 82C12.0066 79.7936 13.7936 78.0066 16 78L16 149.662C15.9303 152.939 18.4114 155.709 21.676 156 24.9848 156.179 27.8124 153.642 27.9912 150.333 27.9972 150.222 28.0002 150.111 28 150L28 114 58.67 114C60.848 114 62.985 114.592 64.852 115.714L77.052 123.052C80.2856 124.996 83.9872 126.022 87.76 126.022L97.8 126.022 98 125.984 98 149.662C97.9302 152.939 100.411 155.709 103.676 156 106.985 156.179 109.812 153.642 109.991 150.333 109.997 150.222 110 150.111 110 150L110 123.726 118 122.22 118 149.662C117.93 152.939 120.411 155.709 123.676 156 126.985 156.179 129.812 153.642 129.991 150.333 129.997 150.222 130 150.111 130 150L130 119.85 132.4 118.108C137.388 114.492 141.394 109.688 144.056 104.132L150.03 91.666C153.922 83.5472 162.663 78.9254 171.564 80.28L180.324 81.614C181.87 81.8492 183.412 81.1618 184.27 79.854L187.07 75.6C188.214 74.102 188.13 72.0018 186.87 70.6L168.43 47.832 163.774 42.776C162.281 41.1544 160.178 40.2312 157.974 40.23L150.866 40.23C151.667 39.0134 152.961 38.2092 154.406 38.03 157.684 37.532 161.988 38.532 169.52 38.532 175.231 38.7296 180.88 37.303 185.812 34.418L187.31 33.388C187.928 32.9716 188.177 32.1838 187.91 31.488 187.647 30.7934 186.948 30.3642 186.21 30.444L179.574 31.19C176.998 31.4806 174.399 31.4954 171.82 31.234L152.346 29.132C144.27 28.586 138.998 35.122 138.998 42.48L138.998 43.092 138.18 43.456C137.041 43.962 135.774 44.1078 134.55 43.874L122.6 41.6C117.869 40.7004 113.004 40.7856 108.308 41.85Z"/><path d="M36 150C36 153.314 38.6862 156 42 156 45.3138 156 48 153.314 48 150L48 118 36 118Z"/></g></svg>