<svg width="192" height="192" xmlns="http://www.w3.org/2000/svg" xmlns:xlink="http://www.w3.org/1999/xlink" overflow="hidden"><g><rect x="0" y="0" width="192" height="192" fill="#FFFFFF"/><path d="M134 31C134 39.8366 126.837 47 118 47 109.163 47 102 39.8366 102 31 102 22.1634 109.163 15 118 15 126.837 15 134 22.1634 134 31Z"/><path d="M46 109C27.2 109 12 124.2 12 143 12 161.8 27.2 177 46 177 64.8 177 80 161.8 80 143 80 124.2 64.8 109 46 109ZM46 169C31.6 169 20 157.4 20 143 20 128.6 31.6 117 46 117 60.4 117 72 128.6 72 143 72 157.4 60.4 169 46 169Z"/><path d="M146 109C127.2 109 112 124.2 112 143 112 161.8 127.2 177 146 177 164.8 177 180 161.8 180 143 180 124.2 164.8 109 146 109ZM146 169C131.6 169 120 157.4 120 143 120 128.6 131.6 117 146 117 160.4 117 172 128.6 172 143 172 157.4 160.4 169 146 169Z"/><path d="M111.4 79.6C113 81.2 115 82 117 82L140 82C144.4 82 148 78.4 148 74 148 69.6 144.4 66 140 66L120.4 66C120.4 66 97.6 43 97.2 42.8 92.2 38.4 84.6 39 80.2 44L53 75C48.6 80 49.2 87.6 54 92 55.2 93 56.4 93.8 57.8 94.2L57.8 94.2 87.8 106.2 87.8 142.8C87.8 147.2 91.4 150.8 95.8 150.8 100.2 150.8 103.8 147.2 103.8 142.8L103.8 100.8C103.8 97.6 101.8 94.6 99 93.4L76.8 84 95 63.2 111.4 79.6Z"/></g></svg>