<svg width="192" height="192" xmlns="http://www.w3.org/2000/svg" xmlns:xlink="http://www.w3.org/1999/xlink" overflow="hidden"><g><rect x="0" y="0" width="192" height="192" fill="#FFFFFF"/><path d="M112 22C112 30.8366 104.837 38 96 38 87.1634 38 80 30.8366 80 22 80 13.1634 87.1634 6 96 6 104.837 6 112 13.1634 112 22Z"/><path d="M139.6 104.4 128.4 56.8C128 55.2 127.2 53.6 126 52.4 121.2 48.4 115.6 45.6 109.2 43.6 104.8 42.8 100.4 42 96 42 91.6 42 87.2 42.8 82.8 44 76.4 45.6 70.8 48.8 66 52.8 64.8 54 64 55.6 63.6 57.2L52.4 104.8C52.4 105.2 52 106 52 106.8 52 111.2 55.6 114.8 60 114.8 63.6 114.8 66.8 112 67.6 108.8L76 74 76 186 92 186 92 114 100 114 100 186 116 186 116 73.6 124.4 108.4C125.2 111.6 128.4 114.4 132 114.4 136.4 114.4 140 110.8 140 106.4 140 105.6 139.6 104.8 139.6 104.4Z"/></g></svg>